<svg version="1.2" xmlns="http://www.w3.org/2000/svg" viewBox="0 0 1200 300" width="1200" height="300">
	<title>logo-svg</title>
	<style>
		.s0 { fill: #604d74 } 
		.s1 { fill: #858e5d } 
	</style>
	<g id="Layer">
		<path id="Layer" class="s0" d="m198.7 21.1c1.5 0.6 38.2 27.6 81.5 60.1 68.1 51 78.9 59.4 79.8 62.4 1.4 4.1 0.6 8.4-2.2 12-3.7 4.7-7.2 5.4-25.9 5.4h-17.1l-3.4 3.4c-2.4 2.4-3.4 4.3-3.5 6.7 0 1.9-0.2 22.5-0.3 45.9-0.2 46.2-0.3 47.3-5.8 53.6-6.3 7.2-9 7.9-30.8 8.2-11.8 0.2-20.9-0.1-23-0.7-2.5-0.8-8.5-6.1-21.3-18.9l-17.8-17.8 3.1-4c1.8-2.1 3.5-4.5 4-5.3 0.6-1.1 4.9 2.5 17.5 14.5 9.1 8.7 17.4 16.2 18.3 16.6 0.9 0.4 8.8 0.7 17.5 0.7 16.6 0.1 20.4-0.7 22.3-4.6 0.5-1 1.1-22.9 1.4-48.8 0.5-45.7 0.6-47.1 2.7-51 5-9.4 12.1-12.7 28.8-13.5 9.6-0.4 12-0.8 12.2-2 0.3-1.7-141.3-108.3-144.4-108.7-2.3-0.4-144.8 106.6-144.8 108.7 0 1.2 2.2 1.6 11.5 2 6.3 0.3 13.5 1.2 16 2 5.8 1.9 13.1 9.1 14.8 14.6 0.9 3 1.2 16.4 1.2 48.4 0 38.7 0.2 44.6 1.6 47.6 2.4 5 5.7 5.5 9.1 1.3 6.6-8.2 22.5-23.7 29.7-29.1 8.5-6.3 21.3-13 28.6-14.8 2.5-0.6 11.7-4 20.6-7.5 16.3-6.6 23.5-8 26.2-5.3 4.5 4.5-3.5 13.3-21.8 24.2-7.2 4.3-12.9 8-12.7 8.3 0.9 0.8 24.4-11.7 30.7-16.3 12.3-9 13.3-17.1 2.7-20.8l-3.5-1.2 13-14.9c7.2-8.3 16.1-18.2 19.8-22.1 3.7-3.9 7.7-8.9 8.9-11.2 2.8-5.5 2.8-13.7 0-19.7-2.5-5.2-9.3-11.8-14.5-14-8.7-3.6-20.8-0.6-26.9 6.7-3.7 4.5-6.2 5.7-11.3 5.8-3.8 0-4.9-0.6-9.6-5-6.3-6-10.8-8-17.8-8-16.4 0.1-28.9 16.1-24.8 31.7 1.1 4.4 3.3 6.9 25.3 28.5l24.1 23.7-5 2.1c-9.7 4.2-7.5 5.6-32.5-19.7-20.4-20.6-22.8-23.3-24.5-28.3-2.6-7.8-2.4-18.7 0.6-26.5 3-7.7 12.9-17.9 21.5-22.1 5.4-2.6 7-2.9 16-2.9 8.9 0 10.5 0.3 15 2.7 2.8 1.4 6.5 4 8.3 5.7 1.8 1.7 3.6 3.1 3.9 3.1 0.3 0 2.6-1.8 5-4.1 5.8-5.4 12.3-8.1 20.4-8.7 16.3-1.1 32.3 8.8 39.7 24.4 2.3 5.1 2.7 7.2 2.7 14.9 0 7-0.5 10-2.1 13.6-1.2 2.5-11.7 20.2-23.5 39.5l-21.3 34.9-25.1 25.2c-23.8 23.9-25.2 25.1-29.5 25.8-2.5 0.3-18 0.5-34.5 0.3-28.7-0.3-30.2-0.4-34.1-2.5-4.7-2.5-8.9-7.1-11.3-12.3-1.4-3-1.6-9.5-1.6-49.5 0-42.3-0.1-46.2-1.8-48.6-2.9-4.3-5.6-4.9-23.3-4.9-18 0-21.5-0.8-25.2-5.5-1.6-2-2.2-4.2-2.2-7.9 0-4.7 0.4-5.5 3.8-8.8 6.5-6.2 155.9-117.6 158.4-118.1 4.5-0.8 9.7-0.7 12.5 0.4z"/>
		<path id="Layer" fill-rule="evenodd" class="s0" d="m463.1 85c1 0 9.5 16.2 26.7 51 21.6 43.7 25.8 51.7 30 56 2.9 3 5.7 5 7 5 1.2 0 2.2 0.4 2.2 0.8 0 0.5-9.7 0.8-21.5 0.8-11.8-0.1-21.5-0.4-21.5-0.8 0-0.5 1.6-0.8 3.5-0.8 4.7 0 7.8-3 6.9-6.7-0.4-1.5-4.3-10-8.6-19l-8-16.3h-44.5l-5.2 12.1c-6 13.8-6.8 19.1-3.5 23.6 2.7 3.7 8 6.3 12.7 6.3 2 0 3.7 0.4 3.7 0.8 0 0.4-9.9 0.7-22 0.7-12.1 0-22-0.3-22-0.7 0-0.5 1.2-0.8 2.8-0.8 3.5 0 8.3-3 11.6-7.3 3.3-4.3 10.1-18.9 31.2-66.4 11.8-26.7 17.4-38.3 18.5-38.3zm3.6 43.2l-10.2-20.3-9.3 20.8c-5.1 11.4-9.2 21.1-9.2 21.5 0 0.5 8.8 0.8 19.5 0.8 15 0 19.5-0.3 19.4-1.3 0-0.6-4.6-10.3-10.2-21.5z"/>
		<path id="Layer" class="s0" d="m874.3 85.1c19.6-0.1 33.1 3.1 34.1 8.2 0.9 3.8 2.5 24.1 2 24.6-0.5 0.6-0.4 0.7-4.7-8-6.3-13-14.9-19.8-27.8-21.8-8.7-1.4-17.6 0.1-26.6 4.4-16 7.9-25.2 25.5-25.3 48.6 0 32.9 22.1 56.8 50.6 54.6 13.5-1 23.7-8.4 31.4-22.8 2.4-4.5 3.5-5.8 3.8-4.5 0.7 3.1-1.9 22-3.1 23.3-1.8 1.7-13.4 5-22.7 6.4-5 0.7-12.3 0.9-17.9 0.6-23.3-1.5-40.8-10-51.6-25.1-6.7-9.5-8.8-15.9-9.3-29.2-0.7-18 3.2-28.1 15.7-40.5 8.6-8.6 17.6-13.6 30.1-16.8 5.6-1.5 11-2 21.3-2z"/>
		<path id="Layer" fill-rule="evenodd" class="s0" d="m760.7 112c0.5 0 9.1 16.7 19.3 37.1 10.2 20.4 19.7 39.1 21.2 41.5 1.5 2.4 4.3 5.1 6.4 6.2l3.7 1.9h-16.9c-14.1 0-16.2-0.2-12.9-1.1 6-1.7 5.8-4.1-2-19.5l-6.5-13.1h-32.7l-4.2 9.4c-4.3 9.8-5.2 15.8-2.8 19 0.7 1 3.6 2.6 6.5 3.5l5.1 1.8h-16.7c-11.9 0-15.7-0.3-13.2-1 4.2-1 7.4-3.8 10.5-9.2 2-3.3 30.5-66.5 33.6-74.3 0.5-1.2 1.2-2.2 1.6-2.2zm-4.7 19c-0.5 0-10.8 22.4-13.7 29.7-0.4 1 2.9 1.3 14.6 1.3h15.1l-7.7-15.5c-4.3-8.5-8-15.5-8.3-15.5zm209.8-19c0.4 0 9 16.7 19.2 37.1 10.2 20.4 19.7 39.1 21.2 41.5 1.5 2.4 4.3 5.1 6.4 6.2l3.7 1.9h-16.9c-14.1 0-16.2-0.2-12.9-1.1 6-1.7 5.7-4.5-1.8-19.6l-6.2-12.5-16.6-0.3-16.6-0.2-4.1 9.4c-4.4 9.8-5.3 15.8-2.9 19 0.7 1 3.6 2.6 6.5 3.5l5.1 1.8h-16.7c-13.6 0-16-0.2-12.9-1.1 4.9-1.4 8.2-4.6 11.7-11.5 2.2-4.5 25.8-57.1 31.6-70.9 0.8-1.7 1.8-3.2 2.2-3.2zm-4.8 19c-0.4 0-12.2 25.8-13.8 30.1-0.2 0.5 6.1 0.9 14.7 0.9h15.1l-7.7-15.5c-4.3-8.5-8-15.5-8.3-15.5z"/>
		<path id="Layer" class="s0" d="m518.8 113.4l16.7-0.1-4.2 1.8c-7.3 3.1-7.3 3.1 7.7 34.9 5.1 10.7 10.3 22 11.7 25 1.8 4.1 2.6 5.1 3.3 4 2.3-4.2 21-54.5 21-56.6 0-2.9-4.1-7.4-6.7-7.4-1 0-2.4-0.4-3.1-0.9-0.7-0.4 5.1-0.8 13.2-0.7h14.5l-4.9 2.4c-2.7 1.3-5.9 3.7-7.1 5.4-1.2 1.6-8.6 19.7-16.4 40.1-8.6 22.6-14.7 37.3-15.6 37.4-0.9 0.2-7.3-12.3-19.4-38.4-16.9-36.4-21.8-45.3-25-45.3-0.8 0-1.6-0.3-1.8-0.8-0.3-0.4 7-0.7 16.1-0.8z"/>
		<path id="Layer" fill-rule="evenodd" class="s0" d="m1080.2 121.2c2.6 3.7 3.4 10.8 1.8 16.6-1.1 4.3-9.6 14.4-13 15.4-1 0.3 0.4 3 5.4 10.1 15.1 21.8 23.9 30.7 33.6 34l4.5 1.5-12.1 0.1c-10.8 0.1-12.4-0.1-14.7-1.9-3.4-2.7-14.8-17.8-22.7-30.3l-6.2-9.7h-11.9l0.3 18.9c0.2 10.4 0.6 19.3 1 19.7 0.4 0.4 2.9 1.3 5.5 2 4.4 1.2 3.3 1.3-13.2 1.3-16.6 0-17.6-0.1-13.1-1.3 2.6-0.8 5.2-2 5.7-2.7 0.5-0.8 0.9-18.2 0.9-38.7 0-35.9-0.1-37.3-2-39.2-1.1-1.1-3.5-2.1-5.2-2.2-1.8-0.1 3.2-0.5 11.2-0.9 30.4-1.3 39 0.1 44.2 7.3zm-34.2-1.6c-0.6 1.4-1 9.6-1 18.3v15.8l4.2 0.6c5.9 0.8 13.2-1 16.1-3.9 3.5-3.5 5.1-10.2 4.4-18.4-0.7-8-2.6-12.4-6.5-14.4-6.8-3.5-15.5-2.5-17.2 2z"/>
		<path id="Layer" class="s0" d="m615.5 114.3c10.6 0 16.2 0.2 13.6 0.7-2.5 0.4-5 1.5-5.7 2.5-1.1 1.5-1.4 9.3-1.4 38.9 0 20.4 0.4 37.7 0.9 38.5 0.5 0.7 3.1 1.9 5.7 2.7 4.5 1.2 3.5 1.3-13.1 1.2-13.1 0-16.9-0.2-14-0.9 7.7-1.8 7.5-0.5 7.5-41.8 0-29.3-0.3-37.1-1.4-38.6-0.7-1-3.2-2.1-5.7-2.5-2.6-0.5 3-0.7 13.6-0.7zm44.5-0.1c10 0 15.9 0.3 13.8 0.7-7.2 1.4-6.8-0.7-6.8 40.5 0 21.7 0.4 37.7 1 38.6 0.7 1.2 3.3 1.5 12.2 1.5 9.6-0.1 11.9-0.4 15.3-2.2 5.6-3 10.2-8.1 12.5-13.9l1.9-4.9v4c0.1 2.2-0.2 7.7-0.6 12.2l-0.6 8.3-33.1-0.1c-27.3 0-32.3-0.3-28.6-1.2 3.1-0.8 4.8-2 5.7-3.7 1.7-3.4 1.9-71.7 0.1-75.4-0.8-1.8-2.2-2.7-4.7-3.2-2-0.3-4-0.7-4.6-0.9-0.5-0.2 6.9-0.3 16.5-0.3zm484.8-0.1l29.2-0.1v4.2c0 2.4 0.3 6.7 0.6 9.5 0.5 3.7 0.3 5.3-0.5 5.3-0.6 0-1.1-0.7-1.1-1.7 0-3.6-5.2-10.5-9.3-12.4-5.9-2.6-18.5-2.7-21.8 0-2.3 1.9-2.4 2.5-2.7 18.1l-0.3 16.2 11-0.4c12.4-0.3 15.6-1.8 17.8-7.9 1-2.9 1.2-1.6 1.2 10.1 0 12.9-0.1 13.3-1.4 9.5-0.8-2.2-2.2-4.6-3.2-5.3-3.1-2.2-9.1-3.3-17.1-3l-7.7 0.3v17.8c0 17.9 0 17.9 2.5 19.9 2.2 1.8 3.6 2 11 1.6 12.5-0.6 19.8-5.2 23.1-14.3 0.7-1.9 1.6-3.5 2-3.5 0.7 0 0.3 8.1-0.7 16.7l-0.5 4.3-30.7-0.1c-25.4 0-29.9-0.3-26.2-1.2 3.1-0.8 4.8-2 5.7-3.7 1-1.9 1.3-11.5 1.3-38.1 0-40.2 0.1-39.4-7.6-40.9-2.2-0.4 8.9-0.8 25.4-0.9z"/>
		<path id="Layer" class="s1" d="m583.8 245.9c-0.2 1-1.1 1.5-2.3 1.2-11.2-2-17.5-0.5-17.5 4.3 0 3.4 2.7 5.2 10.2 7.1 8.2 2.1 11.8 5.2 11.8 10.2 0 7-8.9 11.5-18.6 9.4-6.3-1.4-8.9-3.2-8.1-5.5 0.6-1.6 0.9-1.6 3.9 0.1 4 2.1 13.8 2.4 16.2 0.4 0.9-0.7 1.6-2.6 1.6-4.2 0-3.4-2.4-5.1-9.4-6.8-7-1.7-10.1-3.6-11.6-7-1.6-4.1-0.2-8 4-10.9 5.5-3.7 20.6-2.5 19.8 1.7zm15.2-3.9h13c12.3 0 13 0.1 13 2 0 1.9-0.7 2-10.5 2h-10.5v12h9.5c8.8 0 9.5 0.1 9.5 2 0 1.9-0.7 2-9.5 2h-9.5v12h11c10.3 0 11 0.1 11 2 0 1.9-0.7 2-13.5 2h-13.5v-18zm42.8 0c1 0 6.2 5.6 12.7 13.7l11 13.7 0.3-13.7 0.3-13.7h4.9v36l-2.2-0.1c-1.7 0-5.2-3.6-13.3-13.7l-11-13.7-0.3 13.8c-0.2 12.9-0.4 13.7-2.2 13.7-1.9 0-2-0.8-2-18 0-16.5 0.1-18 1.8-18zm45.2 0h5v36h-5v-18z"/>
		<path id="Layer" fill-rule="evenodd" class="s1" d="m733.3 243.4c9.9 4.2 13.8 16.7 8.2 26.3-3.4 5.7-9.1 8.7-16.5 8.7-14.3-0.1-22.9-13.2-17.1-25.9 2-4.3 4-6.4 8.6-8.8 3.7-2 12.5-2.2 16.8-0.3zm-16 4.6c-4.7 2.8-6.6 7.2-6.1 13.8 0.4 4.8 1 6 4.1 8.9 3.6 3.2 5.9 3.9 12.2 3.4 7.4-0.7 11.8-6 11.9-14.2 0-5.4-2.1-9.1-6.7-11.9-4.2-2.6-11.2-2.6-15.4 0zm40.7-6h8.3c14.7 0 19.6 2.9 20.5 12 0.4 4.9 0.3 5.2-3.5 8.8l-4 3.8 3.9 5.7c3.8 5.6 3.8 5.7 1.5 5.7-1.7 0-3.4-1.4-6.2-5.5l-3.7-5.5h-11.8v5.5c0 5.2-0.1 5.5-2.5 5.5h-2.5zm12.4 4.2l-7.4-0.4v17.2h6.9c9 0 12.1-2.1 12.1-8.4 0-3.1-0.6-4.8-2.1-6.2-1.5-1.4-4-2-9.5-2.2z"/>
		<path id="Layer" class="s1" d="m823 242c1.9 0 2 0.7 2 16v16h10c9.3 0 10 0.1 10 2 0 1.9-0.7 2-12 2h-12v-18c0-17.3 0.1-18 2-18zm34 0h5v36h-5v-18zm18.2 0c2.2 0 3.1 1.6 8.8 14.5 3.5 8 6.6 14.7 7 15 0.3 0.2 3.5-6.3 7.1-14.5 5.6-13.1 6.7-15 8.7-15 1.3 0 2.2 0.4 2 0.9-0.1 0.5-3.7 8.6-7.8 18-6.9 15.6-7.7 17.1-10 17.1-2.3 0-3.2-1.5-10-17.1-4.1-9.4-7.6-17.5-7.8-18-0.2-0.5 0.7-0.9 2-0.9zm44.8 0h5v36h-5v-18zm35.6 13.2c5.8 7.3 11 13.4 11.5 13.6 0.5 0.2 0.9-5.6 0.9-13.2 0-12.9 0.1-13.6 2-13.6 1.9 0 2 0.7 2 18 0 23 0.1 23-14.7 4.4l-10.8-13.6-0.3 13.6-0.3 13.6h-4.9v-18c0-23-0.1-23 14.6-4.8zm61.6-9.5c1.3 1.1 1.5 2 0.8 2.8-0.8 1-1.9 0.8-4.7-0.6-10.7-5.5-22.3 0.9-22.3 12.2 0 8.5 5.8 14.1 14.5 14.1 8 0 8.5-0.5 8.5-7.8 0-6.2 0.1-6.4 2.5-6.4 2.6 0 2.6 0.1 2.3 7.2l-0.3 7.3-4 2c-4.9 2.4-13.7 2.5-18 0.2-9.1-4.7-12.8-14.4-9-23.4 2.1-5 4.2-7.2 9-9.4 6.7-3.1 16.3-2.2 20.7 1.8z"/>
	</g>
</svg>